<svg xmlns="http://www.w3.org/2000/svg" viewBox="150 170 600 460" fill="currentColor">
  <polygon points="400.0,538.0 406.8,558.7 428.5,558.7 410.9,571.6 417.6,592.3 400.0,579.5 382.4,592.3 389.1,571.6 371.5,558.7 393.2,558.7"/>
  <polygon points="316.0,515.5 322.8,536.2 344.5,536.2 326.9,549.0 333.6,569.8 316.0,557.0 298.4,569.8 305.1,549.0 287.5,536.2 309.2,536.2"/>
  <polygon points="254.5,454.0 261.3,474.7 283.0,474.7 265.4,487.6 272.1,508.3 254.5,495.5 236.9,508.3 243.6,487.6 226.0,474.7 247.7,474.7"/>
  <polygon points="232.0,370.0 238.8,390.7 260.5,390.7 242.9,403.6 249.6,424.3 232.0,411.5 214.4,424.3 221.1,403.6 203.5,390.7 225.2,390.7"/>
  <polygon points="254.5,286.0 261.3,306.7 283.0,306.7 265.4,319.6 272.1,340.3 254.5,327.5 236.9,340.3 243.6,319.6 226.0,306.7 247.7,306.7"/>
  <polygon points="316.0,224.5 322.8,245.2 344.5,245.2 326.9,258.1 333.6,278.8 316.0,266.0 298.4,278.8 305.1,258.1 287.5,245.2 309.2,245.2"/>
  <polygon points="400.0,202.0 406.8,222.7 428.5,222.7 410.9,235.6 417.6,256.3 400.0,243.5 382.4,256.3 389.1,235.6 371.5,222.7 393.2,222.7"/>
  <path d="M515,245 C532,368 560,393 680,410 C560,427 532,452 515,575 C498,452 470,427 350,410 C470,393 498,368 515,245 Z"/>
</svg>
